<svg aria-hidden="true" style="position: absolute; width: 0; height: 0; overflow: hidden;" version="1.1" xmlns="http://www.w3.org/2000/svg" xmlns:xlink="http://www.w3.org/1999/xlink">
<defs>
<symbol id="icon-youtube" viewBox="0 0 32 32">
<path d="M28.264 10.142c-0.153-0.536-0.437-0.994-0.816-1.353l-0.001-0.001c-0.388-0.369-0.869-0.644-1.404-0.786l-0.023-0.005c-2.003-0.528-10.027-0.528-10.027-0.528-0.276-0.003-0.602-0.005-0.929-0.005-3.201 0-6.359 0.184-9.464 0.542l0.379-0.036c-0.558 0.158-1.038 0.438-1.428 0.812l0.001-0.001c-0.381 0.364-0.668 0.823-0.824 1.338l-0.006 0.022c-0.332 1.703-0.522 3.662-0.522 5.664 0 0.069 0 0.137 0.001 0.206l-0-0.011c-0 0.059-0.001 0.129-0.001 0.199 0 2.001 0.19 3.958 0.552 5.853l-0.031-0.194c0.146 0.511 0.43 0.978 0.827 1.354s0.888 0.649 1.429 0.792c2.029 0.527 10.014 0.527 10.014 0.527 0.277 0.003 0.604 0.005 0.931 0.005 3.205 0 6.366-0.184 9.475-0.542l-0.379 0.036c0.558-0.147 1.039-0.422 1.428-0.792l-0.001 0.001c0.395-0.377 0.676-0.844 0.816-1.355 0.368-1.932 0.547-3.893 0.533-5.86 0.028-1.975-0.15-3.947-0.532-5.884v0.002zM13.443 19.652v-7.302l6.676 3.652-6.676 3.651z"></path>
</symbol>
<symbol id="icon-wk" viewBox="0 0 32 32">
<path d="M26.633 10.696c0.181 0.476-0.375 1.588-1.671 3.335-0.181 0.238-0.414 0.556-0.7 0.954-0.596 0.741-0.933 1.231-1.011 1.469-0.13 0.317-0.077 0.622 0.156 0.913 0.13 0.159 0.428 0.476 0.894 0.953h0.039v0.040c1.062 0.98 1.774 1.813 2.138 2.502l0.077 0.158 0.077 0.299v0.377l-0.272 0.298-0.66 0.14-2.837 0.079c-0.181 0.027-0.396 0-0.642-0.080-0.215-0.064-0.402-0.145-0.577-0.245l0.013 0.007-0.233-0.158c-0.233-0.159-0.492-0.397-0.778-0.716s-0.537-0.608-0.757-0.873c-0.201-0.246-0.425-0.462-0.671-0.649l-0.010-0.007c-0.233-0.172-0.44-0.231-0.622-0.178-0.037 0.004-0.070 0.018-0.096 0.039l0-0c-0.039 0.027-0.104 0.086-0.195 0.179s-0.169 0.205-0.233 0.338c-0.075 0.166-0.136 0.359-0.173 0.561l-0.002 0.015c-0.050 0.251-0.079 0.54-0.079 0.836 0 0.020 0 0.041 0 0.061l-0-0.003c0 0.107-0.012 0.204-0.038 0.298-0.022 0.085-0.049 0.157-0.082 0.227l0.003-0.008-0.039 0.039c-0.155 0.16-0.363 0.238-0.622 0.238h-1.243c-0.545 0.053-1.095 0-1.652-0.158-0.554-0.153-1.038-0.364-1.485-0.631l0.027 0.015c-0.414-0.252-0.79-0.503-1.127-0.755-0.288-0.209-0.541-0.424-0.778-0.656l0.001 0.001-0.272-0.278c-0.118-0.093-0.22-0.197-0.308-0.313l-0.003-0.004c-0.192-0.237-0.453-0.573-0.71-0.913l-0.087-0.12c-0.365-0.477-0.756-1.033-1.124-1.605l-0.061-0.102c-0.388-0.61-0.843-1.411-1.36-2.404-0.421-0.775-0.903-1.787-1.343-2.821l-0.097-0.256c-0.042-0.093-0.070-0.201-0.077-0.315l-0-0.003c0-0.080 0.013-0.146 0.039-0.199l0.038-0.039c0.104-0.16 0.311-0.239 0.622-0.239h3.071c0.077 0 0.155 0.020 0.233 0.060l0.195 0.1 0.038 0.040c0.13 0.082 0.226 0.206 0.271 0.353l0.001 0.004c0.156 0.371 0.331 0.761 0.524 1.172 0.196 0.411 0.344 0.722 0.447 0.933l0.156 0.317c0.234 0.451 0.447 0.841 0.642 1.172s0.369 0.589 0.524 0.774c0.156 0.186 0.311 0.332 0.467 0.437s0.284 0.158 0.388 0.158c0.104 0 0.207-0.012 0.311-0.039l0.039-0.060 0.136-0.258 0.156-0.516 0.097-0.914v-1.429c-0.027-0.31-0.068-0.588-0.125-0.861l0.008 0.047c-0.052-0.252-0.104-0.43-0.156-0.536l-0.039-0.119c-0.181-0.265-0.505-0.437-0.972-0.516-0.077 0-0.052-0.092 0.077-0.278 0.122-0.126 0.263-0.231 0.419-0.313l0.009-0.004c0.389-0.212 1.27-0.305 2.644-0.278 0.596 0 1.101 0.053 1.516 0.159 0.13 0.027 0.246 0.073 0.35 0.139 0.103 0.067 0.184 0.162 0.231 0.274l0.002 0.004c0.052 0.119 0.091 0.238 0.116 0.357s0.039 0.292 0.039 0.516v0.616c-0.026 0.212-0.039 0.476-0.039 0.795v0.953c0 0.080-0.006 0.238-0.019 0.476s-0.020 0.424-0.020 0.556 0.012 0.284 0.038 0.456c0.027 0.172 0.071 0.318 0.136 0.437 0.085 0.164 0.24 0.283 0.424 0.317l0.004 0.001c0.065 0.013 0.163-0.027 0.292-0.119s0.272-0.225 0.428-0.397c0.156-0.172 0.35-0.43 0.583-0.773 0.234-0.345 0.48-0.742 0.739-1.192 0.441-0.795 0.842-1.655 1.205-2.581 0.026-0.053 0.058-0.113 0.097-0.179 0.032-0.059 0.078-0.106 0.134-0.138l0.002-0.001h0.039l0.038-0.040 0.156-0.040h0.234l3.187-0.040c0.285-0.027 0.524-0.012 0.72 0.040 0.194 0.053 0.304 0.119 0.33 0.198l0.077 0.12z"></path>
</symbol>
<symbol id="icon-play" viewBox="0 0 26 32">
<path fill="#fff" style="fill: var(--color1, #fff)" d="M25.6 16l-25.6 16v-32l25.6 16z"></path>
</symbol>
<symbol id="icon-row-left" viewBox="0 0 32 32">
<path fill="#fff" style="fill: var(--color1, #fff)" d="M24 16c0 0.552-0.448 1-1 1v0h-11.586l4.294 4.292c0.172 0.18 0.279 0.424 0.279 0.693 0 0.553-0.448 1.001-1.001 1.001-0.269 0-0.514-0.106-0.694-0.279l-5.999-5.999c-0.181-0.181-0.294-0.431-0.294-0.708s0.112-0.527 0.294-0.708l5.999-5.999c0.183-0.19 0.439-0.308 0.723-0.308 0.553 0 1.001 0.448 1.001 1.001 0 0.284-0.118 0.54-0.307 0.722l-4.294 4.292h11.586c0 0 0.001 0 0.001 0 0.552 0 0.999 0.447 0.999 0.999 0 0 0 0.001 0 0.001v-0z"></path>
</symbol>
<symbol id="icon-row-right" viewBox="0 0 32 32">
<path fill="#fff" style="fill: var(--color1, #fff)" d="M8 16c0 0.552 0.448 1 1 1h11.586l-4.294 4.292c-0.172 0.18-0.279 0.424-0.279 0.693 0 0.553 0.448 1.001 1.001 1.001 0.269 0 0.514-0.106 0.694-0.279l5.999-5.999c0.181-0.181 0.294-0.431 0.294-0.708s-0.112-0.527-0.294-0.708l-6-5.999c-0.183-0.19-0.439-0.308-0.723-0.308-0.553 0-1.001 0.448-1.001 1.001 0 0.284 0.118 0.54 0.307 0.722l4.294 4.292h-11.586c-0.552 0-1 0.448-1 1v0z"></path>
</symbol>
<symbol id="icon-tg" viewBox="0 0 32 32">
<path fill="#8d86c9" style="fill: var(--color1, #8d86c9)" d="M23.689 8.982l-15.748 5.793c-1.076 0.412-1.068 0.984-0.197 1.238l4.044 1.204 9.354-5.63c0.443-0.257 0.847-0.118 0.515 0.163l-7.58 6.525-0.278 3.976c0.409 0 0.588-0.18 0.818-0.39l1.964-1.822 4.084 2.879c0.753 0.396 1.294 0.192 1.481-0.666l2.682-12.054c0.275-1.049-0.42-1.525-1.139-1.215z"></path>
</symbol>
<symbol id="icon-logo" viewBox="0 0 106 32">
<path fill="#fff" style="fill: var(--color1, #fff)" d="M0 10.306l1.54-7.827h16.192l-1.437 7.827h-3.899l-2.668 13.571c-0.035 0.132-0.047 0.275-0.047 0.429 0 0.337 0.068 0.979 0.57 0.979 0.764 0 1.505-0.52 2.143-0.826l-1.767 7c-1.301 0.296-2.611 0.541-3.969 0.541-3.261 0-6.42-0.908-6.42-4.275 0-0.072 0-0.143 0.024-0.215l3.386-17.203h-3.65z"></path>
<path fill="#fff" style="fill: var(--color1, #fff)" d="M36.649 16.786l-13.136 7.704c0.821 0.735 1.711 1.387 2.931 1.387 3.329 0 5.804-2.806 7.857-4.795l-1.563 7.928c-2.896 1.857-6.545 2.897-10.115 2.897-5.713 0-9.624-4.234-9.624-9.153 0-6.724 7.446-13.601 15.029-13.601 2.497 0 4.87 1.082 6.466 2.776 1.368 1.459 2.041 2.99 2.155 4.858zM34.357 31.459l4.333-22.040h8.723c-0.035 0.408-0.069 0.817-0.069 1.214 0 0.378 0.103 0.735 0.217 1.092 1.414-1.408 3.398-2.582 5.576-2.582 3.136 0 5.964 2.041 5.964 4.949 0 0.357-0.035 0.714-0.102 1.061l-3.216 16.306h-8.927l2.714-13.745c0.022-0.133 0.034-0.255 0.034-0.387 0-0.797-0.742-1.378-1.619-1.378-0.957 0-1.585 0.694-1.744 1.489l-2.885 14.021h-8.999zM56.822 31.459l4.345-22.040h8.733v0.51c0 0.735 0.15 1.337 0.605 1.949 0.513-0.582 1.083-1.133 1.802-1.52 1.574-0.827 3.569-1.214 5.381-1.214 0.73 0 1.358 0.184 2.019 0.459 0.547 1.418 1.437 2.509 2.542 3.622l-3.591 18.234h-9.066l2.68-13.582c0.035-0.184 0.045-0.368 0.045-0.551 0-0.786-0.456-1.49-1.437-1.49-1.003 0-1.653 0.806-1.814 1.623l-2.771 14h-9.475zM79.741 31.459l3.466-17.612c1.551 1.174 2.953 1.734 5.007 1.734 1.197 0 2.349-0.245 3.5-0.52l-3.226 16.398h-8.746z"></path>
<path fill="#fff" style="fill: var(--color1, #fff)" d="M83.857 13.224c0.879-0.225 1.757-0.439 2.68-0.439 1.631 0 3.114 0.755 4.515 1.428-0.89 0.255-1.814 0.52-2.747 0.52-1.677 0.001-3.114-0.642-4.449-1.51zM81.599 11.091c-0.752-1.163-1.448-2.367-1.448-3.745 0-2.010 1.197-3.562 2.657-4.979 2.611 1.755 5.144 2.797 8.472 2.797 1.552 0 3.045-0.378 4.516-0.797 0.536 0.949 1.060 1.949 1.060 3.031 0 2.051-1.174 3.734-2.691 5.194-2.246-1.336-4.641-2.49-7.423-2.49-1.779 0-3.478 0.489-5.144 0.989zM85.51 0.735c1.050-0.388 2.099-0.735 3.239-0.735 2.018 0 3.661 0.541 5.155 1.755-0.913 0.408-1.837 0.755-2.874 0.755-2.063 0-3.888-0.673-5.519-1.775zM89.616 30.643l1.493-7.531c0.593 0.572 2.133 2.205 3.17 2.205 0.787 0 0.924-1.133 0.924-1.633 0-0.765-0.194-1.47-0.719-2.102-1.152-1.377-2.634-2.602-2.634-4.448 0-0.755 0.182-1.501 0.377-2.225 2.633-1.031 4.082-2.714 4.891-5.143h9.317l-1.311 6.673c-0.639-0.602-1.391-1.306-2.383-1.306-0.879 0-1.528 0.867-1.528 1.582 0 1.102 0.616 2.337 1.413 3.163l1.448 1.491c0.696 0.714 1.027 1.663 1.027 2.601 0 1.766-1.129 3.449-2.417 4.715-2.191 2.143-4.403 2.826-7.664 2.826-1.869 0-3.625-0.367-5.404-0.867zM21.551 20.939c2.292-0.593 5.782-3.43 6.284-5.521-0.388-0.081-0.787-0.163-1.186-0.163-2.314 0-5.245 2.398-5.245 4.5 0 0.398 0.068 0.797 0.148 1.185z"></path>
</symbol>
</defs>
</svg>
