<svg aria-hidden="true" style="position: absolute; width: 0; height: 0; overflow: hidden;" version="1.1" xmlns="http://www.w3.org/2000/svg" xmlns:xlink="http://www.w3.org/1999/xlink">
<defs>
<symbol id="icon-youtube" viewBox="0 0 32 32">
<path d="M28.264 10.142c-0.153-0.536-0.437-0.994-0.816-1.353l-0.001-0.001c-0.388-0.369-0.869-0.644-1.404-0.786l-0.023-0.005c-2.003-0.528-10.027-0.528-10.027-0.528-0.276-0.003-0.602-0.005-0.929-0.005-3.201 0-6.359 0.184-9.464 0.542l0.379-0.036c-0.558 0.158-1.038 0.438-1.428 0.812l0.001-0.001c-0.381 0.364-0.668 0.823-0.824 1.338l-0.006 0.022c-0.332 1.703-0.522 3.662-0.522 5.664 0 0.069 0 0.137 0.001 0.206l-0-0.011c-0 0.059-0.001 0.129-0.001 0.199 0 2.001 0.19 3.958 0.552 5.853l-0.031-0.194c0.146 0.511 0.43 0.978 0.827 1.354s0.888 0.649 1.429 0.792c2.029 0.527 10.014 0.527 10.014 0.527 0.277 0.003 0.604 0.005 0.931 0.005 3.205 0 6.366-0.184 9.475-0.542l-0.379 0.036c0.558-0.147 1.039-0.422 1.428-0.792l-0.001 0.001c0.395-0.377 0.676-0.844 0.816-1.355 0.368-1.932 0.547-3.893 0.533-5.86 0.028-1.975-0.15-3.947-0.532-5.884v0.002zM13.443 19.652v-7.302l6.676 3.652-6.676 3.651z"></path>
</symbol>
<symbol id="icon-wk" viewBox="0 0 32 32">
<path d="M26.633 10.696c0.181 0.476-0.375 1.588-1.671 3.335-0.181 0.238-0.414 0.556-0.7 0.954-0.596 0.741-0.933 1.231-1.011 1.469-0.13 0.317-0.077 0.622 0.156 0.913 0.13 0.159 0.428 0.476 0.894 0.953h0.039v0.040c1.062 0.98 1.774 1.813 2.138 2.502l0.077 0.158 0.077 0.299v0.377l-0.272 0.298-0.66 0.14-2.837 0.079c-0.181 0.027-0.396 0-0.642-0.080-0.215-0.064-0.402-0.145-0.577-0.245l0.013 0.007-0.233-0.158c-0.233-0.159-0.492-0.397-0.778-0.716s-0.537-0.608-0.757-0.873c-0.201-0.246-0.425-0.462-0.671-0.649l-0.010-0.007c-0.233-0.172-0.44-0.231-0.622-0.178-0.037 0.004-0.070 0.018-0.096 0.039l0-0c-0.039 0.027-0.104 0.086-0.195 0.179s-0.169 0.205-0.233 0.338c-0.075 0.166-0.136 0.359-0.173 0.561l-0.002 0.015c-0.050 0.251-0.079 0.54-0.079 0.836 0 0.020 0 0.041 0 0.061l-0-0.003c0 0.107-0.012 0.204-0.038 0.298-0.022 0.085-0.049 0.157-0.082 0.227l0.003-0.008-0.039 0.039c-0.155 0.16-0.363 0.238-0.622 0.238h-1.243c-0.545 0.053-1.095 0-1.652-0.158-0.554-0.153-1.038-0.364-1.485-0.631l0.027 0.015c-0.414-0.252-0.79-0.503-1.127-0.755-0.288-0.209-0.541-0.424-0.778-0.656l0.001 0.001-0.272-0.278c-0.118-0.093-0.22-0.197-0.308-0.313l-0.003-0.004c-0.192-0.237-0.453-0.573-0.71-0.913l-0.087-0.12c-0.365-0.477-0.756-1.033-1.124-1.605l-0.061-0.102c-0.388-0.61-0.843-1.411-1.36-2.404-0.421-0.775-0.903-1.787-1.343-2.821l-0.097-0.256c-0.042-0.093-0.070-0.201-0.077-0.315l-0-0.003c0-0.080 0.013-0.146 0.039-0.199l0.038-0.039c0.104-0.16 0.311-0.239 0.622-0.239h3.071c0.077 0 0.155 0.020 0.233 0.060l0.195 0.1 0.038 0.040c0.13 0.082 0.226 0.206 0.271 0.353l0.001 0.004c0.156 0.371 0.331 0.761 0.524 1.172 0.196 0.411 0.344 0.722 0.447 0.933l0.156 0.317c0.234 0.451 0.447 0.841 0.642 1.172s0.369 0.589 0.524 0.774c0.156 0.186 0.311 0.332 0.467 0.437s0.284 0.158 0.388 0.158c0.104 0 0.207-0.012 0.311-0.039l0.039-0.060 0.136-0.258 0.156-0.516 0.097-0.914v-1.429c-0.027-0.31-0.068-0.588-0.125-0.861l0.008 0.047c-0.052-0.252-0.104-0.43-0.156-0.536l-0.039-0.119c-0.181-0.265-0.505-0.437-0.972-0.516-0.077 0-0.052-0.092 0.077-0.278 0.122-0.126 0.263-0.231 0.419-0.313l0.009-0.004c0.389-0.212 1.27-0.305 2.644-0.278 0.596 0 1.101 0.053 1.516 0.159 0.13 0.027 0.246 0.073 0.35 0.139 0.103 0.067 0.184 0.162 0.231 0.274l0.002 0.004c0.052 0.119 0.091 0.238 0.116 0.357s0.039 0.292 0.039 0.516v0.616c-0.026 0.212-0.039 0.476-0.039 0.795v0.953c0 0.080-0.006 0.238-0.019 0.476s-0.020 0.424-0.020 0.556 0.012 0.284 0.038 0.456c0.027 0.172 0.071 0.318 0.136 0.437 0.085 0.164 0.24 0.283 0.424 0.317l0.004 0.001c0.065 0.013 0.163-0.027 0.292-0.119s0.272-0.225 0.428-0.397c0.156-0.172 0.35-0.43 0.583-0.773 0.234-0.345 0.48-0.742 0.739-1.192 0.441-0.795 0.842-1.655 1.205-2.581 0.026-0.053 0.058-0.113 0.097-0.179 0.032-0.059 0.078-0.106 0.134-0.138l0.002-0.001h0.039l0.038-0.040 0.156-0.040h0.234l3.187-0.040c0.285-0.027 0.524-0.012 0.72 0.040 0.194 0.053 0.304 0.119 0.33 0.198l0.077 0.12z"></path>
</symbol>
<symbol id="icon-play" viewBox="0 0 26 32">
<path fill="#fff" style="fill: var(--color1, #fff)" d="M25.6 16l-25.6 16v-32l25.6 16z"></path>
</symbol>
<symbol id="icon-icon" viewBox="0 0 34 32">
<path fill="#fff" style="fill: var(--color1, #fff)" d="M26.003 32h-22c-2.209 0-4-1.791-4-4v0-22c0-2.209 1.791-4 4-4v0h8v4h-8v22h22v-8h4v8c0 2.209-1.791 4-4 4v0zM15.402 19.414l-2.819-2.829 12.586-12.586h-7.166v-4h14v14h-4v-7.17l-12.6 12.584z"></path>
</symbol>
</defs>
</svg>
