<svg xmlns="http://www.w3.org/2000/svg" width="32" height="46" fill="none"><path fill="#8D86C9" d="M21.592 18.176c3.029.896 5.482 2.475 7.36 4.736 1.92 2.219 2.88 4.907 2.88 8.064 0 4.608-1.558 8.213-4.672 10.816-3.072 2.603-6.848 3.904-11.328 3.904-3.499 0-6.635-.79-9.408-2.368-2.731-1.621-4.715-3.99-5.952-7.104l7.552-4.352c1.109 3.456 3.712 5.184 7.808 5.184 2.261 0 4.01-.533 5.248-1.6 1.28-1.11 1.92-2.603 1.92-4.48 0-1.835-.64-3.307-1.92-4.416-1.238-1.11-2.987-1.664-5.248-1.664h-1.92l-3.392-5.12 8.832-11.52H1.816V0h28.16v7.296l-8.384 10.88Z"/></svg>